<svg width="16" height="16" viewBox="0 0 16 16" fill="none" xmlns="http://www.w3.org/2000/svg">
<path d="M2.66684 8.18665C3.40322 8.18665 4.00018 7.61357 4.00018 6.90664C4.00018 6.19972 3.40322 5.62664 2.66684 5.62664C1.93045 5.62664 1.3335 6.19972 1.3335 6.90664C1.3335 7.61357 1.93045 8.18665 2.66684 8.18665Z" fill="#0E0F12"/>
<path d="M3.67361 8.83471C4.05732 8.87034 4.09599 9.34525 3.86399 9.65293C3.53097 10.0946 3.33335 10.6391 3.33335 11.2267C3.33335 11.315 3.26172 11.3867 3.17335 11.3867H0.500003C0.226668 11.3867 0 11.1691 0 10.9067V10.5867C0 9.61386 0.820005 8.82666 1.83334 8.82666H3.50002C3.55851 8.82666 3.61643 8.82939 3.67361 8.83471Z" fill="#0E0F12"/>
<path d="M13.3334 8.18665C14.0698 8.18665 14.6668 7.61357 14.6668 6.90664C14.6668 6.19972 14.0698 5.62664 13.3334 5.62664C12.597 5.62664 12.0001 6.19972 12.0001 6.90664C12.0001 7.61357 12.597 8.18665 13.3334 8.18665Z" fill="#0E0F12"/>
<path d="M16 10.5867V10.9067C16 11.1691 15.7733 11.3867 15.5 11.3867H12.8266C12.7383 11.3867 12.6666 11.315 12.6666 11.2267C12.6666 10.6391 12.469 10.0946 12.136 9.65293C11.904 9.34525 11.9427 8.87034 12.3264 8.83471C12.3836 8.82939 12.4415 8.82666 12.5 8.82666H14.1667C15.18 8.82666 16 9.61386 16 10.5867Z" fill="#0E0F12"/>
<path d="M8.00005 8.50667C9.10462 8.50667 10.0001 7.64705 10.0001 6.58666C10.0001 5.52627 9.10462 4.66666 8.00005 4.66666C6.89547 4.66666 6.00004 5.52627 6.00004 6.58666C6.00004 7.64705 6.89547 8.50667 8.00005 8.50667Z" fill="#0E0F12"/>
<path d="M9.83354 9.46665H6.16686C5.15552 9.46665 4.33351 10.2558 4.33351 11.2267V12.1867C4.33351 12.4516 4.55751 12.6667 4.83352 12.6667H11.1669C11.4429 12.6667 11.6669 12.4516 11.6669 12.1867V11.2267C11.6669 10.2558 10.8449 9.46665 9.83354 9.46665Z" fill="#0E0F12"/>
</svg>
