<svg width="62" height="10" viewBox="0 0 62 10" fill="none" xmlns="http://www.w3.org/2000/svg">
<path d="M2.71732 9.55606C2.46145 9.55606 2.29258 9.44652 2.2107 9.22744L0.0153521 3.12839C0.00511736 3.1021 0 3.06267 0 3.01009C0 2.93122 0.0307042 2.8655 0.0921125 2.81292C0.153521 2.75158 0.230281 2.72091 0.322394 2.72091H1.48915C1.5915 2.72091 1.6785 2.7472 1.75014 2.79978C1.83202 2.85236 1.88319 2.90932 1.90366 2.97066L3.39281 7.2952L4.97408 3.01009C5.00478 2.93122 5.05595 2.8655 5.1276 2.81292C5.20948 2.75158 5.31182 2.72091 5.43464 2.72091H6.2176C6.34041 2.72091 6.43764 2.75158 6.50929 2.81292C6.59116 2.8655 6.64234 2.93122 6.66281 3.01009L8.25942 7.2952L9.74858 2.97066C9.76904 2.90932 9.8151 2.85236 9.88674 2.79978C9.95839 2.7472 10.0505 2.72091 10.1631 2.72091H11.3145C11.4066 2.72091 11.4834 2.75158 11.5448 2.81292C11.6164 2.8655 11.6522 2.93122 11.6522 3.01009L11.6215 3.12839L9.42618 9.22744C9.38524 9.3326 9.32383 9.41585 9.24196 9.47719C9.17031 9.52977 9.06797 9.55606 8.93491 9.55606H7.92168C7.65557 9.55606 7.4867 9.44652 7.41506 9.22744L5.83379 5.10007L4.23718 9.22744C4.1553 9.44652 3.98131 9.55606 3.7152 9.55606H2.71732Z" fill="#020547"/>
<path d="M16.4673 9.6875C15.2596 9.6875 14.3282 9.42461 13.6732 8.89883C13.0182 8.37305 12.6651 7.64572 12.6139 6.71684L12.5985 6.13848L12.6139 5.56013C12.6651 4.64001 13.0233 3.91706 13.6885 3.39128C14.3538 2.85674 15.28 2.58947 16.4673 2.58947C17.6443 2.58947 18.5654 2.85674 19.2306 3.39128C19.8959 3.91706 20.2541 4.64001 20.3053 5.56013C20.3155 5.66528 20.3206 5.85807 20.3206 6.13848C20.3206 6.4189 20.3155 6.61169 20.3053 6.71684C20.2541 7.64572 19.901 8.37305 19.246 8.89883C18.591 9.42461 17.6647 9.6875 16.4673 9.6875ZM16.4673 8.35991C17.0097 8.35991 17.4242 8.21532 17.7108 7.92614C18.0076 7.63696 18.1662 7.21195 18.1867 6.65112C18.1969 6.56349 18.2021 6.39261 18.2021 6.13848C18.2021 5.88436 18.1969 5.71348 18.1867 5.62585C18.1662 5.06502 18.0076 4.64001 17.7108 4.35083C17.414 4.05289 16.9995 3.90392 16.4673 3.90392C15.9248 3.90392 15.5052 4.05289 15.2084 4.35083C14.9116 4.64001 14.753 5.06502 14.7325 5.62585L14.7171 6.13848L14.7325 6.65112C14.753 7.21195 14.9116 7.63696 15.2084 7.92614C15.5052 8.21532 15.9248 8.35991 16.4673 8.35991Z" fill="#020547"/>
<path d="M22.3897 9.55606C22.2874 9.55606 22.2004 9.52538 22.1287 9.46404C22.0571 9.4027 22.0212 9.32822 22.0212 9.24059V3.04953C22.0212 2.95313 22.0571 2.87427 22.1287 2.81292C22.2004 2.75158 22.2874 2.72091 22.3897 2.72091H23.6486C23.7612 2.72091 23.8533 2.75158 23.9249 2.81292C23.9966 2.87427 24.0324 2.95313 24.0324 3.04953V3.58845C24.5441 3.01009 25.281 2.72091 26.2431 2.72091H26.8879C27.0004 2.72091 27.0874 2.75158 27.1488 2.81292C27.2205 2.8655 27.2563 2.93999 27.2563 3.03638V3.99593C27.2563 4.08356 27.2205 4.15805 27.1488 4.21939C27.0874 4.28073 27.0004 4.3114 26.8879 4.3114H25.675C25.194 4.3114 24.8153 4.4297 24.539 4.6663C24.2627 4.9029 24.1245 5.22713 24.1245 5.63899V9.24059C24.1245 9.32822 24.0887 9.4027 24.017 9.46404C23.9454 9.52538 23.8584 9.55606 23.756 9.55606H22.3897Z" fill="#020547"/>
<path d="M28.8367 9.55606C28.7344 9.55606 28.6474 9.52538 28.5757 9.46404C28.5041 9.4027 28.4683 9.32822 28.4683 9.24059V0.538925C28.4683 0.442532 28.5041 0.368047 28.5757 0.315469C28.6474 0.254127 28.7344 0.223457 28.8367 0.223457H30.111C30.2133 0.223457 30.3003 0.254127 30.3719 0.315469C30.4436 0.37681 30.4794 0.451295 30.4794 0.538925V5.03435L33.0279 2.94437C33.0586 2.92684 33.1046 2.89617 33.166 2.85236C33.2377 2.79978 33.3042 2.76473 33.3656 2.7472C33.427 2.72968 33.5038 2.72091 33.5959 2.72091H35.0543C35.1567 2.72091 35.2386 2.7472 35.3 2.79978C35.3614 2.85236 35.3921 2.92246 35.3921 3.01009C35.3921 3.08896 35.3409 3.16783 35.2386 3.24669L32.1067 5.78358L35.6224 9.04342C35.7145 9.12229 35.7605 9.19677 35.7605 9.26688C35.7605 9.35451 35.7298 9.42461 35.6684 9.47719C35.607 9.52977 35.5302 9.55606 35.4381 9.55606H33.949C33.8057 9.55606 33.6982 9.54291 33.6266 9.51662C33.5652 9.48157 33.4833 9.42023 33.381 9.3326L30.4794 6.69055V9.24059C30.4794 9.32822 30.4436 9.4027 30.3719 9.46404C30.3003 9.52538 30.2133 9.55606 30.111 9.55606H28.8367Z" fill="#020547"/>
<path d="M37.2306 1.60363C37.1283 1.60363 37.0413 1.57296 36.9696 1.51162C36.898 1.45028 36.8622 1.37579 36.8622 1.28816V0.328613C36.8622 0.23222 36.898 0.153353 36.9696 0.0920119C37.0413 0.0306706 37.1283 0 37.2306 0H38.643C38.7556 0 38.8477 0.0306706 38.9193 0.0920119C38.991 0.153353 39.0268 0.23222 39.0268 0.328613V1.28816C39.0268 1.37579 38.9859 1.45028 38.904 1.51162C38.8323 1.57296 38.7453 1.60363 38.643 1.60363H37.2306ZM37.292 9.55606C37.1897 9.55606 37.1027 9.52538 37.031 9.46404C36.9594 9.4027 36.9236 9.32822 36.9236 9.24059V3.03638C36.9236 2.93999 36.9594 2.8655 37.031 2.81292C37.1027 2.75158 37.1897 2.72091 37.292 2.72091H38.5969C38.6993 2.72091 38.7863 2.75158 38.8579 2.81292C38.9296 2.87427 38.9654 2.94875 38.9654 3.03638V9.24059C38.9654 9.32822 38.9296 9.4027 38.8579 9.46404C38.7863 9.52538 38.6993 9.55606 38.5969 9.55606H37.292Z" fill="#020547"/>
<path d="M44.5328 9.6875C43.3251 9.6875 42.3937 9.42461 41.7387 8.89883C41.0837 8.37305 40.7306 7.64572 40.6794 6.71684L40.6641 6.13848L40.6794 5.56013C40.7306 4.64001 41.0888 3.91706 41.7541 3.39128C42.4193 2.85674 43.3456 2.58947 44.5328 2.58947C45.7098 2.58947 46.6309 2.85674 47.2962 3.39128C47.9614 3.91706 48.3197 4.64001 48.3708 5.56013C48.3811 5.66528 48.3862 5.85807 48.3862 6.13848C48.3862 6.4189 48.3811 6.61169 48.3708 6.71684C48.3197 7.64572 47.9666 8.37305 47.3115 8.89883C46.6565 9.42461 45.7303 9.6875 44.5328 9.6875ZM44.5328 8.35991C45.0752 8.35991 45.4897 8.21532 45.7763 7.92614C46.0731 7.63696 46.2318 7.21195 46.2522 6.65112C46.2625 6.56349 46.2676 6.39261 46.2676 6.13848C46.2676 5.88436 46.2625 5.71348 46.2522 5.62585C46.2318 5.06502 46.0731 4.64001 45.7763 4.35083C45.4795 4.05289 45.065 3.90392 44.5328 3.90392C43.9904 3.90392 43.5707 4.05289 43.2739 4.35083C42.9771 4.64001 42.8185 5.06502 42.798 5.62585L42.7827 6.13848L42.798 6.65112C42.8185 7.21195 42.9771 7.63696 43.2739 7.92614C43.5707 8.21532 43.9904 8.35991 44.5328 8.35991Z" fill="#020547"/>
<path d="M50.4552 9.55606C50.3529 9.55606 50.2659 9.52538 50.1942 9.46404C50.1226 9.4027 50.0868 9.32822 50.0868 9.24059V3.03638C50.0868 2.93999 50.1226 2.8655 50.1942 2.81292C50.2659 2.75158 50.3529 2.72091 50.4552 2.72091H51.668C51.7806 2.72091 51.8676 2.75158 51.929 2.81292C52.0007 2.8655 52.0365 2.93999 52.0365 3.03638V3.48329C52.5892 2.88741 53.3312 2.58947 54.2625 2.58947C55.3986 2.58947 56.1918 2.97942 56.6421 3.75933C56.8878 3.40881 57.2357 3.12839 57.6861 2.91808C58.1364 2.69901 58.6225 2.58947 59.1445 2.58947C59.9838 2.58947 60.6695 2.83483 61.2017 3.32556C61.7339 3.81629 62 4.53047 62 5.46811V9.24059C62 9.32822 61.9642 9.4027 61.8925 9.46404C61.8311 9.52538 61.7441 9.55606 61.6316 9.55606H60.3573C60.255 9.55606 60.168 9.52538 60.0963 9.46404C60.0247 9.4027 59.9889 9.32822 59.9889 9.24059V5.57327C59.9889 5.0212 59.8507 4.62248 59.5744 4.37712C59.3083 4.13176 58.9552 4.00907 58.5151 4.00907C58.1159 4.00907 57.7731 4.13614 57.4865 4.39026C57.2101 4.63563 57.072 5.02996 57.072 5.57327V9.24059C57.072 9.32822 57.0362 9.4027 56.9645 9.46404C56.9031 9.52538 56.8161 9.55606 56.7035 9.55606H55.414C55.3116 9.55606 55.2246 9.52538 55.153 9.46404C55.0813 9.4027 55.0455 9.32822 55.0455 9.24059V5.57327C55.0455 5.02996 54.9073 4.63563 54.631 4.39026C54.3547 4.13614 54.0016 4.00907 53.5717 4.00907C53.1726 4.00907 52.8297 4.13614 52.5431 4.39026C52.2668 4.63563 52.1286 5.02996 52.1286 5.57327V9.24059C52.1286 9.32822 52.0928 9.4027 52.0211 9.46404C51.9597 9.52538 51.8727 9.55606 51.7602 9.55606H50.4552Z" fill="#020547"/>
</svg>
