<svg width="16" height="16" viewBox="0 0 16 16" fill="none" xmlns="http://www.w3.org/2000/svg">
<path fill-rule="evenodd" clip-rule="evenodd" d="M1.33333 6.66668C1.33333 6.29849 1.63181 6.00001 2 6.00001H11.3333C11.7015 6.00001 12 6.29849 12 6.66668C12 7.03487 11.7015 7.33334 11.3333 7.33334H2C1.63181 7.33334 1.33333 7.03487 1.33333 6.66668Z" fill="#0E0F12"/>
<path fill-rule="evenodd" clip-rule="evenodd" d="M1.33333 4.00001C1.33333 3.63182 1.63181 3.33334 2 3.33334H14C14.3682 3.33334 14.6667 3.63182 14.6667 4.00001C14.6667 4.3682 14.3682 4.66668 14 4.66668H2C1.63181 4.66668 1.33333 4.3682 1.33333 4.00001Z" fill="#0E0F12"/>
<path fill-rule="evenodd" clip-rule="evenodd" d="M1.33333 9.33334C1.33333 8.96515 1.63181 8.66668 2 8.66668H14C14.3682 8.66668 14.6667 8.96515 14.6667 9.33334C14.6667 9.70153 14.3682 10 14 10H2C1.63181 10 1.33333 9.70153 1.33333 9.33334Z" fill="#0E0F12"/>
<path fill-rule="evenodd" clip-rule="evenodd" d="M1.33333 12C1.33333 11.6318 1.63181 11.3333 2 11.3333H11.3333C11.7015 11.3333 12 11.6318 12 12C12 12.3682 11.7015 12.6667 11.3333 12.6667H2C1.63181 12.6667 1.33333 12.3682 1.33333 12Z" fill="#0E0F12"/>
</svg>
